<?xml version="1.0" encoding="UTF-8" standalone="no"?>
<!DOCTYPE svg PUBLIC "-//W3C//DTD SVG 1.1//EN"
 "http://www.w3.org/Graphics/SVG/1.1/DTD/svg11.dtd">
<!-- Generated by graphviz version 2.43.0 (0)
 -->
<!-- Title: pastafarianism Pages: 1 -->
<svg width="663pt" height="404pt"
 viewBox="0.00 0.00 662.80 404.00" xmlns="http://www.w3.org/2000/svg" xmlns:xlink="http://www.w3.org/1999/xlink">
<g id="graph0" class="graph" transform="scale(1 1) rotate(0) translate(4 400)">
<title>pastafarianism</title>
<polygon fill="white" stroke="transparent" points="-4,4 -4,-400 658.8,-400 658.8,4 -4,4"/>
<!-- get_tip -->
<g id="node1" class="node">
<title>get_tip</title>
<polygon fill="orange" stroke="black" points="293.3,-396 239.3,-396 239.3,-360 293.3,-360 293.3,-396"/>
<text text-anchor="middle" x="266.3" y="-375.8" font-family="Times,serif" font-size="9.00">get_tip</text>
</g>
<!-- tip_available -->
<g id="node2" class="node">
<title>tip_available</title>
<ellipse fill="gray" stroke="black" cx="43.3" cy="-306" rx="43.1" ry="18"/>
<text text-anchor="middle" x="43.3" y="-303.8" font-family="Times,serif" font-size="9.00">tip_available</text>
</g>
<!-- get_tip&#45;&gt;tip_available -->
<g id="edge1" class="edge">
<title>get_tip&#45;&gt;tip_available</title>
<path fill="none" stroke="black" d="M239.19,-368.62C205.62,-358.23 146.71,-339.94 96.3,-324 92.98,-322.95 89.53,-321.86 86.08,-320.75"/>
<polygon fill="black" stroke="black" points="86.96,-317.36 76.37,-317.65 84.83,-324.03 86.96,-317.36"/>
</g>
<!-- prepare_tip_for_pickup -->
<g id="node3" class="node">
<title>prepare_tip_for_pickup</title>
<polygon fill="cyan" stroke="black" points="259.78,-298.54 259.78,-313.46 214.39,-324 150.21,-324 104.82,-313.46 104.82,-298.54 150.21,-288 214.39,-288 259.78,-298.54"/>
<text text-anchor="middle" x="182.3" y="-303.8" font-family="Times,serif" font-size="9.00">prepare_tip_for_pickup</text>
</g>
<!-- get_tip&#45;&gt;prepare_tip_for_pickup -->
<g id="edge2" class="edge">
<title>get_tip&#45;&gt;prepare_tip_for_pickup</title>
<path fill="none" stroke="black" d="M245.54,-359.7C235.06,-350.97 222.19,-340.24 210.8,-330.75"/>
<polygon fill="black" stroke="black" points="212.75,-327.82 202.83,-324.1 208.27,-333.19 212.75,-327.82"/>
</g>
<!-- pick_up_using_orchestrator -->
<g id="node4" class="node">
<title>pick_up_using_orchestrator</title>
<polygon fill="orange" stroke="black" points="422.8,-324 277.8,-324 277.8,-288 422.8,-288 422.8,-324"/>
<text text-anchor="middle" x="350.3" y="-303.8" font-family="Times,serif" font-size="9.00">pick_up_using_orchestrator</text>
</g>
<!-- get_tip&#45;&gt;pick_up_using_orchestrator -->
<g id="edge3" class="edge">
<title>get_tip&#45;&gt;pick_up_using_orchestrator</title>
<path fill="none" stroke="black" d="M287.07,-359.7C297.54,-350.97 310.41,-340.24 321.8,-330.75"/>
<polygon fill="black" stroke="black" points="324.33,-333.19 329.78,-324.1 319.85,-327.82 324.33,-333.19"/>
</g>
<!-- pick_up_success -->
<g id="node13" class="node">
<title>pick_up_success</title>
<ellipse fill="gray" stroke="black" cx="494.3" cy="-306" rx="53.23" ry="18"/>
<text text-anchor="middle" x="494.3" y="-303.8" font-family="Times,serif" font-size="9.00">pick_up_success</text>
</g>
<!-- get_tip&#45;&gt;pick_up_success -->
<g id="edge12" class="edge">
<title>get_tip&#45;&gt;pick_up_success</title>
<path fill="none" stroke="black" d="M293.35,-368.7C331.05,-357.12 399.96,-335.96 446.45,-321.69"/>
<polygon fill="black" stroke="black" points="447.77,-324.95 456.3,-318.67 445.71,-318.26 447.77,-324.95"/>
</g>
<!-- pick_up -->
<g id="node5" class="node">
<title>pick_up</title>
<ellipse fill="gray" stroke="black" cx="281.3" cy="-234" rx="30.7" ry="18"/>
<text text-anchor="middle" x="281.3" y="-231.8" font-family="Times,serif" font-size="9.00">pick_up</text>
</g>
<!-- pick_up_using_orchestrator&#45;&gt;pick_up -->
<g id="edge4" class="edge">
<title>pick_up_using_orchestrator&#45;&gt;pick_up</title>
<path fill="none" stroke="black" d="M333.25,-287.7C324.21,-278.53 313.02,-267.18 303.33,-257.35"/>
<polygon fill="black" stroke="black" points="305.8,-254.87 296.29,-250.2 300.81,-259.78 305.8,-254.87"/>
</g>
<!-- caught_tip_firm_and_orient -->
<g id="node6" class="node">
<title>caught_tip_firm_and_orient</title>
<polygon fill="cyan" stroke="black" points="508.53,-226.54 508.53,-241.46 456.26,-252 382.34,-252 330.07,-241.46 330.07,-226.54 382.34,-216 456.26,-216 508.53,-226.54"/>
<text text-anchor="middle" x="419.3" y="-231.8" font-family="Times,serif" font-size="9.00">caught_tip_firm_and_orient</text>
</g>
<!-- pick_up_using_orchestrator&#45;&gt;caught_tip_firm_and_orient -->
<g id="edge5" class="edge">
<title>pick_up_using_orchestrator&#45;&gt;caught_tip_firm_and_orient</title>
<path fill="none" stroke="black" d="M367.36,-287.7C375.8,-279.14 386.13,-268.66 395.34,-259.3"/>
<polygon fill="black" stroke="black" points="397.91,-261.68 402.44,-252.1 392.93,-256.77 397.91,-261.68"/>
</g>
<!-- dicard_tip -->
<g id="node7" class="node">
<title>dicard_tip</title>
<polygon fill="cyan" stroke="black" points="459.29,-154.54 459.29,-169.46 435.87,-180 402.74,-180 379.31,-169.46 379.31,-154.54 402.74,-144 435.87,-144 459.29,-154.54"/>
<text text-anchor="middle" x="419.3" y="-159.8" font-family="Times,serif" font-size="9.00">dicard_tip</text>
</g>
<!-- caught_tip_firm_and_orient&#45;&gt;dicard_tip -->
<g id="edge6" class="edge">
<title>caught_tip_firm_and_orient&#45;&gt;dicard_tip</title>
<path fill="none" stroke="black" d="M419.3,-215.7C419.3,-207.98 419.3,-198.71 419.3,-190.11"/>
<polygon fill="black" stroke="black" points="422.8,-190.1 419.3,-180.1 415.8,-190.1 422.8,-190.1"/>
</g>
<!-- go_to_discard_position -->
<g id="node8" class="node">
<title>go_to_discard_position</title>
<ellipse fill="gray" stroke="black" cx="213.3" cy="-90" rx="70.37" ry="18"/>
<text text-anchor="middle" x="213.3" y="-87.8" font-family="Times,serif" font-size="9.00">go_to_discard_position</text>
</g>
<!-- dicard_tip&#45;&gt;go_to_discard_position -->
<g id="edge7" class="edge">
<title>dicard_tip&#45;&gt;go_to_discard_position</title>
<path fill="none" stroke="black" d="M388.01,-150.37C354.91,-139.12 302.2,-121.21 263.32,-108"/>
<polygon fill="black" stroke="black" points="264.35,-104.65 253.76,-104.75 262.1,-111.28 264.35,-104.65"/>
</g>
<!-- prepare_to_discard -->
<g id="node9" class="node">
<title>prepare_to_discard</title>
<ellipse fill="gray" stroke="black" cx="363.3" cy="-90" rx="61.4" ry="18"/>
<text text-anchor="middle" x="363.3" y="-87.8" font-family="Times,serif" font-size="9.00">prepare_to_discard</text>
</g>
<!-- dicard_tip&#45;&gt;prepare_to_discard -->
<g id="edge8" class="edge">
<title>dicard_tip&#45;&gt;prepare_to_discard</title>
<path fill="none" stroke="black" d="M405.46,-143.7C398.64,-135.18 390.31,-124.76 382.86,-115.45"/>
<polygon fill="black" stroke="black" points="385.58,-113.24 376.6,-107.62 380.11,-117.62 385.58,-113.24"/>
</g>
<!-- eject_tip -->
<g id="node10" class="node">
<title>eject_tip</title>
<ellipse fill="gray" stroke="black" cx="475.3" cy="-90" rx="32.16" ry="18"/>
<text text-anchor="middle" x="475.3" y="-87.8" font-family="Times,serif" font-size="9.00">eject_tip</text>
</g>
<!-- dicard_tip&#45;&gt;eject_tip -->
<g id="edge9" class="edge">
<title>dicard_tip&#45;&gt;eject_tip</title>
<path fill="none" stroke="black" d="M433.14,-143.7C440.16,-134.93 448.78,-124.15 456.4,-114.63"/>
<polygon fill="black" stroke="black" points="459.25,-116.67 462.76,-106.67 453.78,-112.29 459.25,-116.67"/>
</g>
<!-- discard_tip_success -->
<g id="node11" class="node">
<title>discard_tip_success</title>
<polygon fill="orange" stroke="black" points="633.3,-108 525.3,-108 525.3,-72 633.3,-72 633.3,-108"/>
<text text-anchor="middle" x="579.3" y="-87.8" font-family="Times,serif" font-size="9.00">discard_tip_success</text>
</g>
<!-- dicard_tip&#45;&gt;discard_tip_success -->
<g id="edge10" class="edge">
<title>dicard_tip&#45;&gt;discard_tip_success</title>
<path fill="none" stroke="black" d="M447.17,-148.81C470.24,-138.72 503.54,-124.14 530.95,-112.16"/>
<polygon fill="black" stroke="black" points="532.61,-115.25 540.37,-108.03 529.8,-108.84 532.61,-115.25"/>
</g>
<!-- retry_count_below_threshold -->
<g id="node12" class="node">
<title>retry_count_below_threshold</title>
<polygon fill="orange" stroke="black" points="654.8,-36 503.8,-36 503.8,0 654.8,0 654.8,-36"/>
<text text-anchor="middle" x="579.3" y="-15.8" font-family="Times,serif" font-size="9.00">retry_count_below_threshold</text>
</g>
<!-- discard_tip_success&#45;&gt;retry_count_below_threshold -->
<g id="edge11" class="edge">
<title>discard_tip_success&#45;&gt;retry_count_below_threshold</title>
<path fill="none" stroke="black" d="M579.3,-71.7C579.3,-63.98 579.3,-54.71 579.3,-46.11"/>
<polygon fill="black" stroke="black" points="582.8,-46.1 579.3,-36.1 575.8,-46.1 582.8,-46.1"/>
</g>
</g>
</svg>
